<svg xmlns="http://www.w3.org/2000/svg" viewBox="0 0 1280 1280" width="1280" height="1280">
  <path d="M 576 69 L 554 84 L 537 101 L 525 118 L 515 139 L 509 159 L 507 172 L 507 200 L 513 228 L 519 243 L 530 262 L 543 278 L 555 289 L 572 301 L 587 309 L 586 373 L 358 374 L 332 381 L 320 387 L 303 399 L 288 415 L 276 435 L 269 456 L 267 467 L 266 518 L 255 523 L 237 535 L 220 551 L 212 561 L 203 575 L 195 592 L 187 625 L 187 654 L 192 678 L 198 694 L 212 718 L 231 739 L 250 753 L 266 761 L 266 800 L 204 800 L 186 803 L 174 807 L 156 816 L 145 824 L 131 838 L 121 852 L 113 869 L 107 894 L 107 970 L 80 986 L 67 997 L 56 1009 L 39 1036 L 29 1066 L 27 1079 L 27 1107 L 29 1120 L 35 1140 L 45 1161 L 57 1178 L 79 1199 L 104 1214 L 131 1223 L 155 1226 L 183 1224 L 205 1218 L 233 1204 L 245 1195 L 262 1178 L 274 1161 L 282 1145 L 288 1128 L 291 1114 L 292 1079 L 286 1051 L 280 1036 L 269 1017 L 256 1001 L 244 990 L 227 978 L 212 970 L 213 906 L 427 907 L 427 970 L 400 986 L 383 1001 L 368 1020 L 359 1036 L 353 1051 L 347 1079 L 347 1107 L 351 1128 L 357 1145 L 371 1170 L 377 1178 L 394 1195 L 416 1210 L 447 1222 L 475 1226 L 508 1223 L 535 1214 L 560 1199 L 582 1178 L 594 1161 L 604 1140 L 610 1120 L 612 1107 L 612 1079 L 608 1058 L 598 1032 L 583 1009 L 571 996 L 559 986 L 532 970 L 531 887 L 524 864 L 518 852 L 508 838 L 494 824 L 483 816 L 470 809 L 453 803 L 435 800 L 372 799 L 373 761 L 384 756 L 402 744 L 419 728 L 427 718 L 436 704 L 444 687 L 450 666 L 452 653 L 451 619 L 447 601 L 441 585 L 427 561 L 408 540 L 389 526 L 373 518 L 373 479 L 907 480 L 906 518 L 895 523 L 877 535 L 860 551 L 852 561 L 843 575 L 835 592 L 827 625 L 827 654 L 832 678 L 838 694 L 852 718 L 871 739 L 890 753 L 906 761 L 906 800 L 844 800 L 826 803 L 809 809 L 793 818 L 785 824 L 767 843 L 755 864 L 748 887 L 747 970 L 720 986 L 703 1001 L 688 1020 L 679 1036 L 673 1051 L 667 1079 L 667 1107 L 669 1120 L 675 1140 L 685 1161 L 697 1178 L 714 1195 L 736 1210 L 754 1218 L 776 1224 L 804 1226 L 836 1221 L 863 1210 L 885 1195 L 902 1178 L 914 1161 L 924 1140 L 930 1120 L 932 1107 L 932 1079 L 926 1051 L 920 1036 L 909 1017 L 896 1001 L 884 990 L 867 978 L 852 970 L 853 906 L 1067 907 L 1067 970 L 1040 986 L 1023 1001 L 1008 1020 L 999 1036 L 993 1051 L 987 1079 L 987 1107 L 989 1120 L 995 1140 L 1005 1161 L 1017 1178 L 1034 1195 L 1056 1210 L 1074 1218 L 1096 1224 L 1124 1226 L 1156 1221 L 1183 1210 L 1205 1195 L 1222 1178 L 1234 1161 L 1242 1145 L 1248 1128 L 1252 1107 L 1252 1079 L 1250 1066 L 1240 1036 L 1223 1009 L 1211 996 L 1199 986 L 1172 970 L 1171 887 L 1164 864 L 1158 852 L 1148 838 L 1134 824 L 1123 816 L 1110 809 L 1093 803 L 1075 800 L 1012 799 L 1013 761 L 1029 753 L 1048 739 L 1067 718 L 1081 694 L 1087 678 L 1091 660 L 1092 626 L 1090 613 L 1084 592 L 1076 575 L 1067 561 L 1059 551 L 1042 535 L 1024 523 L 1013 518 L 1012 467 L 1008 448 L 1000 429 L 987 410 L 967 392 L 947 381 L 927 375 L 911 373 L 692 372 L 692 309 L 719 293 L 736 278 L 751 259 L 760 243 L 766 228 L 772 200 L 772 172 L 770 159 L 764 139 L 754 118 L 742 101 L 725 84 L 703 69 L 685 61 L 663 55 L 635 53 L 607 57 Z M 1112 1039 L 1132 1040 L 1141 1043 L 1151 1049 L 1160 1057 L 1166 1065 L 1173 1084 L 1173 1102 L 1169 1115 L 1163 1125 L 1146 1140 L 1134 1145 L 1124 1147 L 1105 1145 L 1087 1136 L 1072 1119 L 1066 1102 L 1067 1079 L 1075 1062 L 1084 1052 L 1094 1045 Z M 792 1039 L 812 1040 L 821 1043 L 831 1049 L 840 1057 L 846 1065 L 853 1084 L 853 1102 L 849 1115 L 843 1125 L 826 1140 L 814 1145 L 804 1147 L 785 1145 L 767 1136 L 752 1119 L 746 1102 L 747 1079 L 755 1062 L 764 1052 L 774 1045 Z M 472 1039 L 492 1040 L 501 1043 L 511 1049 L 520 1057 L 526 1065 L 533 1084 L 533 1102 L 529 1115 L 523 1125 L 506 1140 L 494 1145 L 484 1147 L 465 1145 L 447 1136 L 432 1119 L 426 1102 L 427 1079 L 435 1062 L 444 1052 L 454 1045 Z M 152 1039 L 172 1040 L 181 1043 L 191 1049 L 200 1057 L 206 1065 L 213 1084 L 213 1102 L 209 1115 L 203 1125 L 186 1140 L 174 1145 L 164 1147 L 145 1145 L 127 1136 L 112 1119 L 106 1102 L 107 1079 L 115 1062 L 124 1052 L 134 1045 Z M 950 586 L 973 587 L 993 597 L 1006 612 L 1013 630 L 1012 653 L 1002 673 L 987 686 L 969 693 L 946 692 L 926 682 L 913 667 L 906 649 L 907 626 L 917 606 L 932 593 Z M 310 586 L 333 587 L 353 597 L 366 612 L 373 630 L 372 653 L 362 673 L 347 686 L 329 693 L 306 692 L 286 682 L 273 667 L 266 649 L 267 626 L 277 606 L 292 593 Z M 635 132 L 654 134 L 672 143 L 687 160 L 693 177 L 692 200 L 684 217 L 675 227 L 665 234 L 646 240 L 627 239 L 618 236 L 608 230 L 599 222 L 593 214 L 586 195 L 586 177 L 590 164 L 596 154 L 613 139 L 625 134 Z" fill="#000000" fill-rule="evenodd"/>
</svg>
